<svg width="182" height="174" viewBox="0 0 182 174" fill="none" xmlns="http://www.w3.org/2000/svg">
<ellipse cx="91" cy="87" rx="91" ry="87" fill="url(#paint0_linear_4273_1264)"/>
<path d="M19.31 121V56.2H69.71C71.81 56.2 73.76 56.74 75.56 57.82C77.36 58.84 78.77 60.25 79.79 62.05C80.87 63.79 81.41 65.74 81.41 67.9V81.13C81.41 81.91 81.32 82.69 81.14 83.47C81.02 84.25 80.78 84.97 80.42 85.63C81.62 87.31 82.52 88.9 83.12 90.4C83.78 91.84 84.11 93.31 84.11 94.81V109.3C84.11 111.46 83.57 113.44 82.49 115.24C81.47 116.98 80.06 118.39 78.26 119.47C76.46 120.49 74.48 121 72.32 121H19.31ZM31.28 111.28H72.14C72.74 111.28 73.25 111.07 73.67 110.65C74.09 110.17 74.3 109.63 74.3 109.03V95.08C74.3 94.48 74.09 93.97 73.67 93.55C73.25 93.07 72.74 92.83 72.14 92.83H31.28C30.68 92.83 30.14 93.07 29.66 93.55C29.24 93.97 29.03 94.48 29.03 95.08V109.03C29.03 109.63 29.24 110.17 29.66 110.65C30.14 111.07 30.68 111.28 31.28 111.28ZM31.28 83.11H69.44C70.04 83.11 70.55 82.9 70.97 82.48C71.39 82 71.6 81.46 71.6 80.86V68.17C71.6 67.57 71.39 67.06 70.97 66.64C70.55 66.16 70.04 65.92 69.44 65.92H31.28C30.68 65.92 30.14 66.16 29.66 66.64C29.24 67.06 29.03 67.57 29.03 68.17V80.86C29.03 81.46 29.24 82 29.66 82.48C30.14 82.9 30.68 83.11 31.28 83.11ZM90.3228 121V56.2H101.933L127.043 86.08L152.063 56.2H163.763V121H153.953V69.25L127.043 101.29L100.043 69.25V121H90.3228Z" fill="white"/>
<defs>
<linearGradient id="paint0_linear_4273_1264" x1="162" y1="-9.12683e-06" x2="5.43188e-06" y2="174" gradientUnits="userSpaceOnUse">
<stop offset="0.189146" stop-color="#5FBCFF"/>
<stop offset="0.572263" stop-color="#FF7C7C"/>
<stop offset="1" stop-color="#885FFF"/>
</linearGradient>
</defs>
</svg>
