<svg width="1080" height="108" viewBox="0 0 1080 108" fill="none" xmlns="http://www.w3.org/2000/svg">
<path d="M0.850001 108V-4.29153e-06H84.85C88.35 -4.29153e-06 91.6 0.899996 94.6 2.7C97.6 4.39999 99.95 6.74999 101.65 9.75C103.45 12.65 104.35 15.9 104.35 19.5V41.55C104.35 42.85 104.2 44.15 103.9 45.45C103.7 46.75 103.3 47.95 102.7 49.05C104.7 51.85 106.2 54.5 107.2 57C108.3 59.4 108.85 61.85 108.85 64.35V88.5C108.85 92.1 107.95 95.4 106.15 98.4C104.45 101.3 102.1 103.65 99.1 105.45C96.1 107.15 92.8 108 89.2 108H0.850001ZM20.8 91.8H88.9C89.9 91.8 90.75 91.45 91.45 90.75C92.15 89.95 92.5 89.05 92.5 88.05V64.8C92.5 63.8 92.15 62.95 91.45 62.25C90.75 61.45 89.9 61.05 88.9 61.05H20.8C19.8 61.05 18.9 61.45 18.1 62.25C17.4 62.95 17.05 63.8 17.05 64.8V88.05C17.05 89.05 17.4 89.95 18.1 90.75C18.9 91.45 19.8 91.8 20.8 91.8ZM20.8 44.85H84.4C85.4 44.85 86.25 44.5 86.95 43.8C87.65 43 88 42.1 88 41.1V19.95C88 18.95 87.65 18.1 86.95 17.4C86.25 16.6 85.4 16.2 84.4 16.2H20.8C19.8 16.2 18.9 16.6 18.1 17.4C17.4 18.1 17.05 18.95 17.05 19.95V41.1C17.05 42.1 17.4 43 18.1 43.8C18.9 44.5 19.8 44.85 20.8 44.85ZM119.505 108V-4.29153e-06H218.505V16.2H135.855V45.9H202.305V62.1H135.855V91.8H218.505V108H119.505ZM246.948 108C243.448 108 240.198 107.15 237.198 105.45C234.198 103.65 231.798 101.3 229.998 98.4C228.298 95.4 227.448 92.1 227.448 88.5V82.2H243.648V88.05C243.648 89.05 243.998 89.95 244.698 90.75C245.498 91.45 246.398 91.8 247.398 91.8H315.498C316.498 91.8 317.348 91.45 318.048 90.75C318.748 89.95 319.098 89.05 319.098 88.05V65.85C319.098 64.75 318.748 63.85 318.048 63.15C317.348 62.45 316.498 62.1 315.498 62.1H246.948C243.448 62.1 240.198 61.25 237.198 59.55C234.198 57.75 231.798 55.4 229.998 52.5C228.298 49.5 227.448 46.2 227.448 42.6V19.5C227.448 15.9 228.298 12.65 229.998 9.75C231.798 6.74999 234.198 4.39999 237.198 2.7C240.198 0.899996 243.448 -4.29153e-06 246.948 -4.29153e-06H315.948C319.448 -4.29153e-06 322.698 0.899996 325.698 2.7C328.698 4.39999 331.048 6.74999 332.748 9.75C334.548 12.65 335.448 15.9 335.448 19.5V25.8H319.098V19.95C319.098 18.95 318.748 18.1 318.048 17.4C317.348 16.6 316.498 16.2 315.498 16.2H247.398C246.398 16.2 245.498 16.6 244.698 17.4C243.998 18.1 243.648 18.95 243.648 19.95V42.15C243.648 43.25 243.998 44.15 244.698 44.85C245.498 45.55 246.398 45.9 247.398 45.9H315.948C319.448 45.9 322.698 46.8 325.698 48.6C328.698 50.3 331.048 52.65 332.748 55.65C334.548 58.55 335.448 61.8 335.448 65.4V88.5C335.448 92.1 334.548 95.4 332.748 98.4C331.048 101.3 328.698 103.65 325.698 105.45C322.698 107.15 319.448 108 315.948 108H246.948ZM386.181 108V16.2H340.281V-4.29153e-06H448.281V16.2H402.381V108H386.181ZM491.005 108V-4.29153e-06H510.355L552.205 49.8L593.905 -4.29153e-06H613.405V108H597.055V21.75L552.205 75.15L507.205 21.75V108H491.005ZM624.466 108V19.5C624.466 15.9 625.316 12.65 627.016 9.75C628.816 6.74999 631.166 4.39999 634.066 2.7C637.066 0.899996 640.366 -4.29153e-06 643.966 -4.29153e-06H712.816C716.416 -4.29153e-06 719.716 0.899996 722.716 2.7C725.716 4.39999 728.066 6.74999 729.766 9.75C731.566 12.65 732.466 15.9 732.466 19.5V108H716.116V70.2H640.666V108H624.466ZM640.666 54H716.116V19.95C716.116 18.95 715.766 18.1 715.066 17.4C714.366 16.6 713.516 16.2 712.516 16.2H644.416C643.416 16.2 642.516 16.6 641.716 17.4C641.016 18.1 640.666 18.95 640.666 19.95V54ZM784.056 108V16.2H738.156V-4.29153e-06H846.156V16.2H800.256V108H784.056ZM870.875 108C867.275 108 863.975 107.15 860.975 105.45C858.075 103.65 855.725 101.3 853.925 98.4C852.225 95.4 851.375 92.1 851.375 88.5V19.5C851.375 15.9 852.225 12.65 853.925 9.75C855.725 6.74999 858.075 4.39999 860.975 2.7C863.975 0.899996 867.275 -4.29153e-06 870.875 -4.29153e-06H959.075V16.2H873.125C871.525 16.2 870.175 16.75 869.075 17.85C868.075 18.85 867.575 20.15 867.575 21.75V86.25C867.575 87.85 868.075 89.2 869.075 90.3C870.175 91.3 871.525 91.8 873.125 91.8H959.075V108H870.875ZM968.864 108V-4.29153e-06H985.064V45.9H1063.06V-4.29153e-06H1079.41V108H1063.06V62.1H985.064V108H968.864Z" fill="#fff"/>
</svg>
